<svg width="1024" height="1024" viewBox="0 0 1024 1024" fill="none" xmlns="http://www.w3.org/2000/svg">
<g clip-path="url(#clip0_18_15)">
<rect width="1024" height="1024" fill="url(#paint0_linear_18_15)"/>
<path d="M331.29 820.109C314.838 820.109 303.054 816.552 295.94 809.437C288.826 801.878 285.268 787.872 285.268 767.418C285.268 753.634 286.602 736.07 289.27 714.727C292.383 692.939 297.274 663.148 303.944 625.353C315.505 555.543 324.62 495.071 331.29 443.936C335.291 411.921 337.292 385.242 337.292 363.899C337.292 343.89 329.956 333.885 315.282 333.885C303.721 333.885 289.715 339.888 273.263 351.894C257.256 363.455 239.47 382.13 219.905 407.919C213.68 416.368 206.788 420.592 199.229 420.592C193.004 420.592 187.446 417.702 182.555 411.921C178.108 405.696 175.885 398.804 175.885 391.245C175.885 384.131 177.219 377.016 179.887 369.902C182.999 362.343 187.89 353.895 194.56 344.557C215.903 314.765 239.692 291.866 265.926 275.859C292.16 259.407 318.395 251.181 344.629 251.181C369.085 251.181 387.76 258.962 400.655 274.525C413.994 290.087 420.664 312.765 420.664 342.556C420.664 354.562 419.552 368.79 417.329 385.242C415.106 401.25 413.105 414.367 411.326 424.594C409.548 434.821 408.214 441.935 407.324 445.937C432.669 373.459 461.127 322.991 492.697 294.534C524.267 265.632 558.95 251.181 596.745 251.181C625.647 251.181 648.324 261.408 664.776 281.861C681.673 302.315 690.121 331.217 690.121 368.568C690.121 383.241 688.12 401.472 684.118 423.26C706.351 361.898 732.363 317.878 762.154 291.199C791.946 264.52 826.184 251.181 864.868 251.181C895.993 251.181 919.782 261.185 936.234 281.194C953.131 301.204 961.579 329.217 961.579 365.233C961.579 384.798 958.689 408.586 952.909 436.599L912.223 627.354C907.777 649.586 905.553 668.706 905.553 684.713C905.553 703.388 909.778 717.395 918.226 726.733C927.119 736.07 939.347 740.739 954.909 740.739C969.583 740.739 983.812 735.848 997.596 726.066C1011.82 716.283 1028.5 700.054 1047.62 677.377C1052.95 671.151 1058.96 668.039 1065.63 668.039C1071.41 668.039 1075.85 670.707 1078.97 676.043C1082.52 681.378 1084.3 688.715 1084.3 698.053C1084.3 715.394 1080.08 729.178 1071.63 739.405C1048.51 767.418 1025.61 787.872 1002.93 800.767C980.254 813.661 956.466 820.109 931.565 820.109C893.77 820.109 864.201 808.993 842.858 786.76C821.515 764.083 810.843 733.847 810.843 696.052C810.843 669.818 816.179 631.8 826.851 581.999L853.53 459.943C854.419 455.941 855.975 448.827 858.198 438.6C860.422 428.373 862.2 418.813 863.534 409.92C864.868 400.583 865.535 391.467 865.535 382.574C865.535 367.012 862.422 355.451 856.197 347.892C850.417 339.888 841.969 335.886 830.852 335.886C809.954 335.886 787.944 349.448 764.822 376.572C742.145 403.251 720.357 447.715 699.459 509.966C679.005 572.217 662.331 653.143 649.436 752.745C646.323 779.423 640.765 797.432 632.761 806.769C625.202 815.662 612.752 820.109 595.411 820.109C580.293 820.109 569.177 816.552 562.062 809.437C555.393 802.323 552.058 788.983 552.058 769.419C552.058 751.188 554.503 727.4 559.394 698.053C564.285 668.261 570.511 633.356 578.07 593.338C598.523 485.733 608.75 416.368 608.75 385.242C608.75 368.346 605.415 355.895 598.746 347.892C592.521 339.888 582.961 335.886 570.066 335.886C548.278 335.886 525.823 348.336 502.702 373.237C479.58 397.692 456.903 441.49 434.67 504.63C412.883 567.326 394.652 652.254 379.979 759.414C376.866 782.091 372.197 797.876 365.972 806.769C360.192 815.662 348.631 820.109 331.29 820.109Z" fill="white"/>
<path d="M331.29 820.109C314.838 820.109 303.054 816.552 295.94 809.437C288.826 801.878 285.268 787.872 285.268 767.418C285.268 753.634 286.602 736.07 289.27 714.727C292.383 692.939 297.274 663.148 303.944 625.353C315.505 555.543 324.62 495.071 331.29 443.936C335.291 411.921 337.292 385.242 337.292 363.899C337.292 343.89 329.956 333.885 315.282 333.885C303.721 333.885 289.715 339.888 273.263 351.894C257.256 363.455 239.47 382.13 219.905 407.919C213.68 416.368 206.788 420.592 199.229 420.592C193.004 420.592 187.446 417.702 182.555 411.921C178.108 405.696 175.885 398.804 175.885 391.245C175.885 384.131 177.219 377.016 179.887 369.902C182.999 362.343 187.89 353.895 194.56 344.557C215.903 314.765 239.692 291.866 265.926 275.859C292.16 259.407 318.395 251.181 344.629 251.181C369.085 251.181 387.76 258.962 400.655 274.525C413.994 290.087 420.664 312.765 420.664 342.556C420.664 354.562 419.552 368.79 417.329 385.242C415.106 401.25 413.105 414.367 411.326 424.594C409.548 434.821 408.214 441.935 407.324 445.937C432.669 373.459 461.127 322.991 492.697 294.534C524.267 265.632 558.95 251.181 596.745 251.181C625.647 251.181 648.324 261.408 664.776 281.861C681.673 302.315 690.121 331.217 690.121 368.568C690.121 383.241 688.12 401.472 684.118 423.26C706.351 361.898 732.363 317.878 762.154 291.199C791.946 264.52 826.184 251.181 864.868 251.181C895.993 251.181 919.782 261.185 936.234 281.194C953.131 301.204 961.579 329.217 961.579 365.233C961.579 384.798 958.689 408.586 952.909 436.599L912.223 627.354C907.777 649.586 905.553 668.706 905.553 684.713C905.553 703.388 909.778 717.395 918.226 726.733C927.119 736.07 939.347 740.739 954.909 740.739C969.583 740.739 983.812 735.848 997.596 726.066C1011.82 716.283 1028.5 700.054 1047.62 677.377C1052.95 671.151 1058.96 668.039 1065.63 668.039C1071.41 668.039 1075.85 670.707 1078.97 676.043C1082.52 681.378 1084.3 688.715 1084.3 698.053C1084.3 715.394 1080.08 729.178 1071.63 739.405C1048.51 767.418 1025.61 787.872 1002.93 800.767C980.254 813.661 956.466 820.109 931.565 820.109C893.77 820.109 864.201 808.993 842.858 786.76C821.515 764.083 810.843 733.847 810.843 696.052C810.843 669.818 816.179 631.8 826.851 581.999L853.53 459.943C854.419 455.941 855.975 448.827 858.198 438.6C860.422 428.373 862.2 418.813 863.534 409.92C864.868 400.583 865.535 391.467 865.535 382.574C865.535 367.012 862.422 355.451 856.197 347.892C850.417 339.888 841.969 335.886 830.852 335.886C809.954 335.886 787.944 349.448 764.822 376.572C742.145 403.251 720.357 447.715 699.459 509.966C679.005 572.217 662.331 653.143 649.436 752.745C646.323 779.423 640.765 797.432 632.761 806.769C625.202 815.662 612.752 820.109 595.411 820.109C580.293 820.109 569.177 816.552 562.062 809.437C555.393 802.323 552.058 788.983 552.058 769.419C552.058 751.188 554.503 727.4 559.394 698.053C564.285 668.261 570.511 633.356 578.07 593.338C598.523 485.733 608.75 416.368 608.75 385.242C608.75 368.346 605.415 355.895 598.746 347.892C592.521 339.888 582.961 335.886 570.066 335.886C548.278 335.886 525.823 348.336 502.702 373.237C479.58 397.692 456.903 441.49 434.67 504.63C412.883 567.326 394.652 652.254 379.979 759.414C376.866 782.091 372.197 797.876 365.972 806.769C360.192 815.662 348.631 820.109 331.29 820.109Z" fill="white"/>
</g>
<defs>
<linearGradient id="paint0_linear_18_15" x1="29.4253" y1="3.24142e-05" x2="672.858" y2="749.364" gradientUnits="userSpaceOnUse">
<stop stop-color="#FF8477"/>
<stop offset="1" stop-color="#FF4E3C"/>
</linearGradient>
<clipPath id="clip0_18_15">
<rect width="1024" height="1024" fill="white"/>
</clipPath>
</defs>
</svg>
