<svg width="180" height="180" viewBox="0 0 180 180" fill="none" xmlns="http://www.w3.org/2000/svg">
<g clip-path="url(#clip0_18_18)">
<rect width="180" height="180" fill="url(#paint0_linear_18_18)"/>
<path d="M58.2344 144.621C55.3425 144.621 53.2712 143.995 52.0206 142.745C50.7701 141.416 50.1448 138.954 50.1448 135.359C50.1448 132.936 50.3793 129.848 50.8482 126.096C51.3953 122.267 52.2551 117.03 53.4275 110.386C55.4597 98.1149 57.062 87.485 58.2344 78.4965C58.9379 72.8689 59.2896 68.1793 59.2896 64.4275C59.2896 60.9103 57.9999 59.1517 55.4206 59.1517C53.3884 59.1517 50.9264 60.2068 48.0344 62.3172C45.2206 64.3494 42.0942 67.6321 38.6551 72.1655C37.5609 73.6505 36.3494 74.393 35.0206 74.393C33.9264 74.393 32.9494 73.885 32.0896 72.8689C31.308 71.7747 30.9172 70.5632 30.9172 69.2344C30.9172 67.9839 31.1517 66.7333 31.6206 65.4827C32.1678 64.154 33.0275 62.6689 34.1999 61.0275C37.9517 55.7907 42.1333 51.7655 46.7448 48.9517C51.3563 46.0597 55.9678 44.6137 60.5792 44.6137C64.8781 44.6137 68.1609 45.9816 70.4275 48.7172C72.7724 51.4528 73.9448 55.439 73.9448 60.6758C73.9448 62.7862 73.7494 65.2873 73.3586 68.1793C72.9678 70.993 72.616 73.2988 72.3034 75.0965C71.9907 76.8942 71.7563 78.1448 71.5999 78.8482C76.0551 66.108 81.0574 57.2367 86.6068 52.2344C92.1563 47.154 98.2528 44.6137 104.896 44.6137C109.977 44.6137 113.963 46.4114 116.855 50.0068C119.825 53.6022 121.31 58.6827 121.31 65.2482C121.31 67.8275 120.959 71.0321 120.255 74.862C124.163 64.0758 128.736 56.3379 133.972 51.6482C139.209 46.9586 145.228 44.6137 152.028 44.6137C157.499 44.6137 161.68 46.3724 164.572 49.8896C167.542 53.4068 169.028 58.331 169.028 64.662C169.028 68.1011 168.519 72.2827 167.503 77.2068L160.352 110.738C159.57 114.646 159.179 118.007 159.179 120.821C159.179 124.103 159.922 126.565 161.407 128.207C162.97 129.848 165.119 130.669 167.855 130.669C170.434 130.669 172.936 129.809 175.359 128.09C177.86 126.37 180.791 123.517 184.152 119.531C185.09 118.437 186.145 117.89 187.317 117.89C188.333 117.89 189.115 118.359 189.662 119.296C190.287 120.234 190.6 121.524 190.6 123.165C190.6 126.214 189.857 128.637 188.372 130.434C184.308 135.359 180.283 138.954 176.296 141.221C172.31 143.487 168.129 144.621 163.752 144.621C157.108 144.621 151.91 142.667 148.159 138.759C144.407 134.772 142.531 129.457 142.531 122.814C142.531 118.202 143.469 111.519 145.345 102.765L150.034 81.3103C150.191 80.6068 150.464 79.3563 150.855 77.5586C151.246 75.7609 151.559 74.0804 151.793 72.5172C152.028 70.8758 152.145 69.2735 152.145 67.7103C152.145 64.9747 151.598 62.9425 150.503 61.6137C149.487 60.2068 148.002 59.5034 146.048 59.5034C142.375 59.5034 138.506 61.8873 134.441 66.6551C130.455 71.3448 126.625 79.1609 122.952 90.1034C119.356 101.046 116.425 115.271 114.159 132.779C113.611 137.469 112.634 140.634 111.228 142.276C109.899 143.839 107.71 144.621 104.662 144.621C102.005 144.621 100.051 143.995 98.7999 142.745C97.6275 141.494 97.0413 139.149 97.0413 135.71C97.0413 132.506 97.4712 128.324 98.331 123.165C99.1907 117.929 100.285 111.793 101.614 104.759C105.209 85.8436 107.007 73.6505 107.007 68.1793C107.007 65.2091 106.421 63.0206 105.248 61.6137C104.154 60.2068 102.474 59.5034 100.207 59.5034C96.3769 59.5034 92.4298 61.6919 88.3655 66.0689C84.3011 70.3678 80.3149 78.0666 76.4068 89.1655C72.577 100.186 69.3724 115.115 66.793 133.952C66.2459 137.938 65.4252 140.713 64.331 142.276C63.3149 143.839 61.2827 144.621 58.2344 144.621Z" fill="white"/>
<path d="M58.2344 144.621C55.3425 144.621 53.2712 143.995 52.0206 142.745C50.7701 141.416 50.1448 138.954 50.1448 135.359C50.1448 132.936 50.3793 129.848 50.8482 126.096C51.3953 122.267 52.2551 117.03 53.4275 110.386C55.4597 98.1149 57.062 87.485 58.2344 78.4965C58.9379 72.8689 59.2896 68.1793 59.2896 64.4275C59.2896 60.9103 57.9999 59.1517 55.4206 59.1517C53.3884 59.1517 50.9264 60.2068 48.0344 62.3172C45.2206 64.3494 42.0942 67.6321 38.6551 72.1655C37.5609 73.6505 36.3494 74.393 35.0206 74.393C33.9264 74.393 32.9494 73.885 32.0896 72.8689C31.308 71.7747 30.9172 70.5632 30.9172 69.2344C30.9172 67.9839 31.1517 66.7333 31.6206 65.4827C32.1678 64.154 33.0275 62.6689 34.1999 61.0275C37.9517 55.7907 42.1333 51.7655 46.7448 48.9517C51.3563 46.0597 55.9678 44.6137 60.5792 44.6137C64.8781 44.6137 68.1609 45.9816 70.4275 48.7172C72.7724 51.4528 73.9448 55.439 73.9448 60.6758C73.9448 62.7862 73.7494 65.2873 73.3586 68.1793C72.9678 70.993 72.616 73.2988 72.3034 75.0965C71.9907 76.8942 71.7563 78.1448 71.5999 78.8482C76.0551 66.108 81.0574 57.2367 86.6068 52.2344C92.1563 47.154 98.2528 44.6137 104.896 44.6137C109.977 44.6137 113.963 46.4114 116.855 50.0068C119.825 53.6022 121.31 58.6827 121.31 65.2482C121.31 67.8275 120.959 71.0321 120.255 74.862C124.163 64.0758 128.736 56.3379 133.972 51.6482C139.209 46.9586 145.228 44.6137 152.028 44.6137C157.499 44.6137 161.68 46.3724 164.572 49.8896C167.542 53.4068 169.028 58.331 169.028 64.662C169.028 68.1011 168.519 72.2827 167.503 77.2068L160.352 110.738C159.57 114.646 159.179 118.007 159.179 120.821C159.179 124.103 159.922 126.565 161.407 128.207C162.97 129.848 165.119 130.669 167.855 130.669C170.434 130.669 172.936 129.809 175.359 128.09C177.86 126.37 180.791 123.517 184.152 119.531C185.09 118.437 186.145 117.89 187.317 117.89C188.333 117.89 189.115 118.359 189.662 119.296C190.287 120.234 190.6 121.524 190.6 123.165C190.6 126.214 189.857 128.637 188.372 130.434C184.308 135.359 180.283 138.954 176.296 141.221C172.31 143.487 168.129 144.621 163.752 144.621C157.108 144.621 151.91 142.667 148.159 138.759C144.407 134.772 142.531 129.457 142.531 122.814C142.531 118.202 143.469 111.519 145.345 102.765L150.034 81.3103C150.191 80.6068 150.464 79.3563 150.855 77.5586C151.246 75.7609 151.559 74.0804 151.793 72.5172C152.028 70.8758 152.145 69.2735 152.145 67.7103C152.145 64.9747 151.598 62.9425 150.503 61.6137C149.487 60.2068 148.002 59.5034 146.048 59.5034C142.375 59.5034 138.506 61.8873 134.441 66.6551C130.455 71.3448 126.625 79.1609 122.952 90.1034C119.356 101.046 116.425 115.271 114.159 132.779C113.611 137.469 112.634 140.634 111.228 142.276C109.899 143.839 107.71 144.621 104.662 144.621C102.005 144.621 100.051 143.995 98.7999 142.745C97.6275 141.494 97.0413 139.149 97.0413 135.71C97.0413 132.506 97.4712 128.324 98.331 123.165C99.1907 117.929 100.285 111.793 101.614 104.759C105.209 85.8436 107.007 73.6505 107.007 68.1793C107.007 65.2091 106.421 63.0206 105.248 61.6137C104.154 60.2068 102.474 59.5034 100.207 59.5034C96.3769 59.5034 92.4298 61.6919 88.3655 66.0689C84.3011 70.3678 80.3149 78.0666 76.4068 89.1655C72.577 100.186 69.3724 115.115 66.793 133.952C66.2459 137.938 65.4252 140.713 64.331 142.276C63.3149 143.839 61.2827 144.621 58.2344 144.621Z" fill="white"/>
</g>
<defs>
<linearGradient id="paint0_linear_18_18" x1="5.17241" y1="5.6978e-06" x2="118.276" y2="131.724" gradientUnits="userSpaceOnUse">
<stop stop-color="#FF8477"/>
<stop offset="1" stop-color="#FF4E3C"/>
</linearGradient>
<clipPath id="clip0_18_18">
<rect width="180" height="180" fill="white"/>
</clipPath>
</defs>
</svg>
