<svg width="32" height="32" viewBox="0 0 32 32" fill="none" xmlns="http://www.w3.org/2000/svg">
<g clip-path="url(#clip0_18_21)">
<rect width="32" height="32" fill="url(#paint0_linear_18_21)"/>
<path d="M10.3529 26.0659C9.83876 26.0659 9.47054 25.9547 9.24822 25.7324C9.02589 25.4962 8.91473 25.0585 8.91473 24.4193C8.91473 23.9885 8.95641 23.4397 9.03979 22.7727C9.13705 22.0918 9.2899 21.1609 9.49833 19.9798C9.85961 17.7982 10.1445 15.9084 10.3529 14.3105C10.4779 13.31 10.5405 12.4763 10.5405 11.8093C10.5405 11.184 10.3112 10.8714 9.85266 10.8714C9.49138 10.8714 9.05368 11.059 8.53956 11.4342C8.03933 11.7954 7.48352 12.379 6.87212 13.185C6.67759 13.449 6.46221 13.581 6.22599 13.581C6.03146 13.581 5.85777 13.4907 5.70492 13.31C5.56597 13.1155 5.49649 12.9001 5.49649 12.6639C5.49649 12.4416 5.53818 12.2192 5.62155 11.9969C5.71882 11.7607 5.87166 11.4967 6.08009 11.2049C6.74707 10.2739 7.49046 9.5583 8.31028 9.05807C9.13011 8.54394 9.94993 8.28688 10.7697 8.28688C11.534 8.28688 12.1176 8.53005 12.5206 9.01638C12.9374 9.50272 13.1458 10.2114 13.1458 11.1424C13.1458 11.5175 13.1111 11.9622 13.0416 12.4763C12.9721 12.9765 12.9096 13.3864 12.854 13.706C12.7985 14.0256 12.7568 14.248 12.729 14.373C13.521 12.1081 14.4103 10.531 15.3969 9.64167C16.3834 8.73848 17.4673 8.28688 18.6484 8.28688C19.5516 8.28688 20.2602 8.60647 20.7743 9.24565C21.3024 9.88484 21.5664 10.788 21.5664 11.9552C21.5664 12.4138 21.5038 12.9835 21.3788 13.6644C22.0736 11.7468 22.8864 10.3712 23.8174 9.53746C24.7484 8.70374 25.8183 8.28688 27.0272 8.28688C27.9999 8.28688 28.7433 8.59952 29.2574 9.22481C29.7854 9.8501 30.0494 10.7255 30.0494 11.851C30.0494 12.4624 29.9591 13.2058 29.7785 14.0812L28.5071 20.0423C28.3681 20.737 28.2986 21.3345 28.2986 21.8348C28.2986 22.4184 28.4306 22.8561 28.6947 23.1479C28.9726 23.4397 29.3547 23.5856 29.841 23.5856C30.2996 23.5856 30.7442 23.4327 31.175 23.127C31.6196 22.8213 32.1407 22.3142 32.7382 21.6055C32.9049 21.411 33.0925 21.3137 33.3009 21.3137C33.4816 21.3137 33.6205 21.3971 33.7178 21.5638C33.829 21.7306 33.8845 21.9598 33.8845 22.2516C33.8845 22.7935 33.7525 23.2243 33.4885 23.5439C32.766 24.4193 32.0504 25.0585 31.3417 25.4614C30.633 25.8644 29.8896 26.0659 29.1115 26.0659C27.9304 26.0659 27.0064 25.7185 26.3394 25.0237C25.6724 24.3151 25.3389 23.3702 25.3389 22.1891C25.3389 21.3693 25.5057 20.1812 25.8392 18.625L26.6729 14.8107C26.7007 14.6857 26.7493 14.4633 26.8188 14.1437C26.8883 13.8241 26.9438 13.5254 26.9855 13.2475C27.0272 12.9557 27.0481 12.6708 27.0481 12.3929C27.0481 11.9066 26.9508 11.5453 26.7563 11.3091C26.5756 11.059 26.3116 10.9339 25.9642 10.9339C25.3112 10.9339 24.6233 11.3577 23.9008 12.2053C23.1921 13.0391 22.5113 14.4286 21.8582 16.3739C21.219 18.3193 20.6979 20.8482 20.295 23.9608C20.1977 24.7945 20.024 25.3572 19.7739 25.649C19.5377 25.9269 19.1486 26.0659 18.6067 26.0659C18.1342 26.0659 17.7869 25.9547 17.5645 25.7324C17.3561 25.5101 17.2519 25.0932 17.2519 24.4818C17.2519 23.9121 17.3283 23.1687 17.4812 22.2516C17.634 21.3206 17.8285 20.2299 18.0648 18.9793C18.7039 15.6166 19.0235 13.449 19.0235 12.4763C19.0235 11.9483 18.9193 11.5592 18.7109 11.3091C18.5164 11.059 18.2176 10.9339 17.8147 10.9339C17.1338 10.9339 16.4321 11.323 15.7095 12.1011C14.987 12.8654 14.2783 14.2341 13.5835 16.2072C12.9027 18.1664 12.333 20.8204 11.8744 24.1692C11.7772 24.8778 11.6313 25.3711 11.4367 25.649C11.2561 25.9269 10.8948 26.0659 10.3529 26.0659Z" fill="white"/>
<path d="M10.3529 26.0659C9.83876 26.0659 9.47054 25.9547 9.24822 25.7324C9.02589 25.4962 8.91473 25.0585 8.91473 24.4193C8.91473 23.9885 8.95641 23.4397 9.03979 22.7727C9.13705 22.0918 9.2899 21.1609 9.49833 19.9798C9.85961 17.7982 10.1445 15.9084 10.3529 14.3105C10.4779 13.31 10.5405 12.4763 10.5405 11.8093C10.5405 11.184 10.3112 10.8714 9.85266 10.8714C9.49138 10.8714 9.05368 11.059 8.53956 11.4342C8.03933 11.7954 7.48352 12.379 6.87212 13.185C6.67759 13.449 6.46221 13.581 6.22599 13.581C6.03146 13.581 5.85777 13.4907 5.70492 13.31C5.56597 13.1155 5.49649 12.9001 5.49649 12.6639C5.49649 12.4416 5.53818 12.2192 5.62155 11.9969C5.71882 11.7607 5.87166 11.4967 6.08009 11.2049C6.74707 10.2739 7.49046 9.5583 8.31028 9.05807C9.13011 8.54394 9.94993 8.28688 10.7697 8.28688C11.534 8.28688 12.1176 8.53005 12.5206 9.01638C12.9374 9.50272 13.1458 10.2114 13.1458 11.1424C13.1458 11.5175 13.1111 11.9622 13.0416 12.4763C12.9721 12.9765 12.9096 13.3864 12.854 13.706C12.7985 14.0256 12.7568 14.248 12.729 14.373C13.521 12.1081 14.4103 10.531 15.3969 9.64167C16.3834 8.73848 17.4673 8.28688 18.6484 8.28688C19.5516 8.28688 20.2602 8.60647 20.7743 9.24565C21.3024 9.88484 21.5664 10.788 21.5664 11.9552C21.5664 12.4138 21.5038 12.9835 21.3788 13.6644C22.0736 11.7468 22.8864 10.3712 23.8174 9.53746C24.7484 8.70374 25.8183 8.28688 27.0272 8.28688C27.9999 8.28688 28.7433 8.59952 29.2574 9.22481C29.7854 9.8501 30.0494 10.7255 30.0494 11.851C30.0494 12.4624 29.9591 13.2058 29.7785 14.0812L28.5071 20.0423C28.3681 20.737 28.2986 21.3345 28.2986 21.8348C28.2986 22.4184 28.4306 22.8561 28.6947 23.1479C28.9726 23.4397 29.3547 23.5856 29.841 23.5856C30.2996 23.5856 30.7442 23.4327 31.175 23.127C31.6196 22.8213 32.1407 22.3142 32.7382 21.6055C32.9049 21.411 33.0925 21.3137 33.3009 21.3137C33.4816 21.3137 33.6205 21.3971 33.7178 21.5638C33.829 21.7306 33.8845 21.9598 33.8845 22.2516C33.8845 22.7935 33.7525 23.2243 33.4885 23.5439C32.766 24.4193 32.0504 25.0585 31.3417 25.4614C30.633 25.8644 29.8896 26.0659 29.1115 26.0659C27.9304 26.0659 27.0064 25.7185 26.3394 25.0237C25.6724 24.3151 25.3389 23.3702 25.3389 22.1891C25.3389 21.3693 25.5057 20.1812 25.8392 18.625L26.6729 14.8107C26.7007 14.6857 26.7493 14.4633 26.8188 14.1437C26.8883 13.8241 26.9438 13.5254 26.9855 13.2475C27.0272 12.9557 27.0481 12.6708 27.0481 12.3929C27.0481 11.9066 26.9508 11.5453 26.7563 11.3091C26.5756 11.059 26.3116 10.9339 25.9642 10.9339C25.3112 10.9339 24.6233 11.3577 23.9008 12.2053C23.1921 13.0391 22.5113 14.4286 21.8582 16.3739C21.219 18.3193 20.6979 20.8482 20.295 23.9608C20.1977 24.7945 20.024 25.3572 19.7739 25.649C19.5377 25.9269 19.1486 26.0659 18.6067 26.0659C18.1342 26.0659 17.7869 25.9547 17.5645 25.7324C17.3561 25.5101 17.2519 25.0932 17.2519 24.4818C17.2519 23.9121 17.3283 23.1687 17.4812 22.2516C17.634 21.3206 17.8285 20.2299 18.0648 18.9793C18.7039 15.6166 19.0235 13.449 19.0235 12.4763C19.0235 11.9483 18.9193 11.5592 18.7109 11.3091C18.5164 11.059 18.2176 10.9339 17.8147 10.9339C17.1338 10.9339 16.4321 11.323 15.7095 12.1011C14.987 12.8654 14.2783 14.2341 13.5835 16.2072C12.9027 18.1664 12.333 20.8204 11.8744 24.1692C11.7772 24.8778 11.6313 25.3711 11.4367 25.649C11.2561 25.9269 10.8948 26.0659 10.3529 26.0659Z" fill="white"/>
</g>
<defs>
<linearGradient id="paint0_linear_18_21" x1="0.919539" y1="1.01294e-06" x2="21.0268" y2="23.4176" gradientUnits="userSpaceOnUse">
<stop stop-color="#FF8477"/>
<stop offset="1" stop-color="#FF4E3C"/>
</linearGradient>
<clipPath id="clip0_18_21">
<rect width="32" height="32" fill="white"/>
</clipPath>
</defs>
</svg>
