<svg width="24" height="24" viewBox="0 0 24 24" fill="none" xmlns="http://www.w3.org/2000/svg">
<path d="M16.125 6.75V18.75C16.125 19.0484 16.0065 19.3345 15.7955 19.5455C15.5845 19.7565 15.2984 19.875 15 19.875C14.7016 19.875 14.4155 19.7565 14.2045 19.5455C13.9935 19.3345 13.875 19.0484 13.875 18.75V6.75C13.875 6.45163 13.9935 6.16548 14.2045 5.9545C14.4155 5.74353 14.7016 5.625 15 5.625C15.2984 5.625 15.5845 5.74353 15.7955 5.9545C16.0065 6.16548 16.125 6.45163 16.125 6.75ZM18.75 1.875C18.4516 1.875 18.1655 1.99353 17.9545 2.2045C17.7435 2.41548 17.625 2.70163 17.625 3V18.75C17.625 19.0484 17.7435 19.3345 17.9545 19.5455C18.1655 19.7565 18.4516 19.875 18.75 19.875C19.0484 19.875 19.3345 19.7565 19.5455 19.5455C19.7565 19.3345 19.875 19.0484 19.875 18.75V3C19.875 2.70163 19.7565 2.41548 19.5455 2.2045C19.3345 1.99353 19.0484 1.875 18.75 1.875ZM11.25 9.375C10.9516 9.375 10.6655 9.49353 10.4545 9.7045C10.2435 9.91548 10.125 10.2016 10.125 10.5V18.75C10.125 19.0484 10.2435 19.3345 10.4545 19.5455C10.6655 19.7565 10.9516 19.875 11.25 19.875C11.5484 19.875 11.8345 19.7565 12.0455 19.5455C12.2565 19.3345 12.375 19.0484 12.375 18.75V10.5C12.375 10.2016 12.2565 9.91548 12.0455 9.7045C11.8345 9.49353 11.5484 9.375 11.25 9.375ZM7.5 13.125C7.20163 13.125 6.91548 13.2435 6.7045 13.4545C6.49353 13.6655 6.375 13.9516 6.375 14.25V18.75C6.375 19.0484 6.49353 19.3345 6.7045 19.5455C6.91548 19.7565 7.20163 19.875 7.5 19.875C7.79837 19.875 8.08452 19.7565 8.2955 19.5455C8.50647 19.3345 8.625 19.0484 8.625 18.75V14.25C8.625 13.9516 8.50647 13.6655 8.2955 13.4545C8.08452 13.2435 7.79837 13.125 7.5 13.125ZM3.75 16.875C3.45163 16.875 3.16548 16.9935 2.9545 17.2045C2.74353 17.4155 2.625 17.7016 2.625 18V18.75C2.625 19.0484 2.74353 19.3345 2.9545 19.5455C3.16548 19.7565 3.45163 19.875 3.75 19.875C4.04837 19.875 4.33452 19.7565 4.5455 19.5455C4.75647 19.3345 4.875 19.0484 4.875 18.75V18C4.875 17.7016 4.75647 17.4155 4.5455 17.2045C4.33452 16.9935 4.04837 16.875 3.75 16.875Z" fill="#DC4424"/>
<path d="M16.125 6.75V18.75C16.125 19.0484 16.0065 19.3345 15.7955 19.5455C15.5845 19.7565 15.2984 19.875 15 19.875C14.7016 19.875 14.4155 19.7565 14.2045 19.5455C13.9935 19.3345 13.875 19.0484 13.875 18.75V6.75C13.875 6.45163 13.9935 6.16548 14.2045 5.9545C14.4155 5.74353 14.7016 5.625 15 5.625C15.2984 5.625 15.5845 5.74353 15.7955 5.9545C16.0065 6.16548 16.125 6.45163 16.125 6.75ZM18.75 1.875C18.4516 1.875 18.1655 1.99353 17.9545 2.2045C17.7435 2.41548 17.625 2.70163 17.625 3V18.75C17.625 19.0484 17.7435 19.3345 17.9545 19.5455C18.1655 19.7565 18.4516 19.875 18.75 19.875C19.0484 19.875 19.3345 19.7565 19.5455 19.5455C19.7565 19.3345 19.875 19.0484 19.875 18.75V3C19.875 2.70163 19.7565 2.41548 19.5455 2.2045C19.3345 1.99353 19.0484 1.875 18.75 1.875ZM11.25 9.375C10.9516 9.375 10.6655 9.49353 10.4545 9.7045C10.2435 9.91548 10.125 10.2016 10.125 10.5V18.75C10.125 19.0484 10.2435 19.3345 10.4545 19.5455C10.6655 19.7565 10.9516 19.875 11.25 19.875C11.5484 19.875 11.8345 19.7565 12.0455 19.5455C12.2565 19.3345 12.375 19.0484 12.375 18.75V10.5C12.375 10.2016 12.2565 9.91548 12.0455 9.7045C11.8345 9.49353 11.5484 9.375 11.25 9.375ZM7.5 13.125C7.20163 13.125 6.91548 13.2435 6.7045 13.4545C6.49353 13.6655 6.375 13.9516 6.375 14.25V18.75C6.375 19.0484 6.49353 19.3345 6.7045 19.5455C6.91548 19.7565 7.20163 19.875 7.5 19.875C7.79837 19.875 8.08452 19.7565 8.2955 19.5455C8.50647 19.3345 8.625 19.0484 8.625 18.75V14.25C8.625 13.9516 8.50647 13.6655 8.2955 13.4545C8.08452 13.2435 7.79837 13.125 7.5 13.125ZM3.75 16.875C3.45163 16.875 3.16548 16.9935 2.9545 17.2045C2.74353 17.4155 2.625 17.7016 2.625 18V18.75C2.625 19.0484 2.74353 19.3345 2.9545 19.5455C3.16548 19.7565 3.45163 19.875 3.75 19.875C4.04837 19.875 4.33452 19.7565 4.5455 19.5455C4.75647 19.3345 4.875 19.0484 4.875 18.75V18C4.875 17.7016 4.75647 17.4155 4.5455 17.2045C4.33452 16.9935 4.04837 16.875 3.75 16.875Z" fill="white" fill-opacity="0.85"/>
<path d="M8.625 14.25V18.75C8.625 19.0484 8.50647 19.3345 8.2955 19.5455C8.08452 19.7565 7.79837 19.875 7.5 19.875C7.20163 19.875 6.91548 19.7565 6.7045 19.5455C6.49353 19.3345 6.375 19.0484 6.375 18.75V14.25C6.375 13.9516 6.49353 13.6655 6.7045 13.4545C6.91548 13.2435 7.20163 13.125 7.5 13.125C7.79837 13.125 8.08452 13.2435 8.2955 13.4545C8.50647 13.6655 8.625 13.9516 8.625 14.25ZM3.75 16.875C3.45163 16.875 3.16548 16.9935 2.9545 17.2045C2.74353 17.4155 2.625 17.7016 2.625 18V18.75C2.625 19.0484 2.74353 19.3345 2.9545 19.5455C3.16548 19.7565 3.45163 19.875 3.75 19.875C4.04837 19.875 4.33452 19.7565 4.5455 19.5455C4.75647 19.3345 4.875 19.0484 4.875 18.75V18C4.875 17.7016 4.75647 17.4155 4.5455 17.2045C4.33452 16.9935 4.04837 16.875 3.75 16.875Z" fill="#DC4424"/>
</svg>
