<svg width="641" height="286" viewBox="0 0 641 286" fill="none" xmlns="http://www.w3.org/2000/svg">
<g filter="url(#filter0_in_18_7)">
<path d="M84.44 208.85C80.2467 208.85 77.2433 207.943 75.43 206.13C73.6167 204.203 72.71 200.633 72.71 195.42C72.71 191.907 73.05 187.43 73.73 181.99C74.5233 176.437 75.77 168.843 77.47 159.21C80.4167 141.417 82.74 126.003 84.44 112.97C85.46 104.81 85.97 98.01 85.97 92.57C85.97 87.47 84.1 84.92 80.36 84.92C77.4133 84.92 73.8433 86.45 69.65 89.51C65.57 92.4567 61.0367 97.2167 56.05 103.79C54.4633 105.943 52.7067 107.02 50.78 107.02C49.1933 107.02 47.7767 106.283 46.53 104.81C45.3967 103.223 44.83 101.467 44.83 99.54C44.83 97.7267 45.17 95.9133 45.85 94.1C46.6433 92.1733 47.89 90.02 49.59 87.64C55.03 80.0467 61.0933 74.21 67.78 70.13C74.4667 65.9367 81.1533 63.84 87.84 63.84C94.0733 63.84 98.8333 65.8233 102.12 69.79C105.52 73.7567 107.22 79.5367 107.22 87.13C107.22 90.19 106.937 93.8167 106.37 98.01C105.803 102.09 105.293 105.433 104.84 108.04C104.387 110.647 104.047 112.46 103.82 113.48C110.28 95.0067 117.533 82.1433 125.58 74.89C133.627 67.5233 142.467 63.84 152.1 63.84C159.467 63.84 165.247 66.4467 169.44 71.66C173.747 76.8733 175.9 84.24 175.9 93.76C175.9 97.5 175.39 102.147 174.37 107.7C180.037 92.06 186.667 80.84 194.26 74.04C201.853 67.24 210.58 63.84 220.44 63.84C228.373 63.84 234.437 66.39 238.63 71.49C242.937 76.59 245.09 83.73 245.09 92.91C245.09 97.8967 244.353 103.96 242.88 111.1L232.51 159.72C231.377 165.387 230.81 170.26 230.81 174.34C230.81 179.1 231.887 182.67 234.04 185.05C236.307 187.43 239.423 188.62 243.39 188.62C247.13 188.62 250.757 187.373 254.27 184.88C257.897 182.387 262.147 178.25 267.02 172.47C268.38 170.883 269.91 170.09 271.61 170.09C273.083 170.09 274.217 170.77 275.01 172.13C275.917 173.49 276.37 175.36 276.37 177.74C276.37 182.16 275.293 185.673 273.14 188.28C267.247 195.42 261.41 200.633 255.63 203.92C249.85 207.207 243.787 208.85 237.44 208.85C227.807 208.85 220.27 206.017 214.83 200.35C209.39 194.57 206.67 186.863 206.67 177.23C206.67 170.543 208.03 160.853 210.75 148.16L217.55 117.05C217.777 116.03 218.173 114.217 218.74 111.61C219.307 109.003 219.76 106.567 220.1 104.3C220.44 101.92 220.61 99.5967 220.61 97.33C220.61 93.3633 219.817 90.4167 218.23 88.49C216.757 86.45 214.603 85.43 211.77 85.43C206.443 85.43 200.833 88.8867 194.94 95.8C189.16 102.6 183.607 113.933 178.28 129.8C173.067 145.667 168.817 166.293 165.53 191.68C164.737 198.48 163.32 203.07 161.28 205.45C159.353 207.717 156.18 208.85 151.76 208.85C147.907 208.85 145.073 207.943 143.26 206.13C141.56 204.317 140.71 200.917 140.71 195.93C140.71 191.283 141.333 185.22 142.58 177.74C143.827 170.147 145.413 161.25 147.34 151.05C152.553 123.623 155.16 105.943 155.16 98.01C155.16 93.7033 154.31 90.53 152.61 88.49C151.023 86.45 148.587 85.43 145.3 85.43C139.747 85.43 134.023 88.6033 128.13 94.95C122.237 101.183 116.457 112.347 110.79 128.44C105.237 144.42 100.59 166.067 96.85 193.38C96.0567 199.16 94.8667 203.183 93.28 205.45C91.8067 207.717 88.86 208.85 84.44 208.85ZM352.772 155.81C354.245 155.81 355.378 156.547 356.172 158.02C356.965 159.493 357.362 161.363 357.362 163.63C357.362 169.07 355.718 172.3 352.432 173.32C345.632 175.7 338.152 177.06 329.992 177.4C327.838 186.92 323.588 194.57 317.242 200.35C310.895 206.017 303.698 208.85 295.652 208.85C288.852 208.85 283.015 207.207 278.142 203.92C273.382 200.633 269.755 196.27 267.262 190.83C264.768 185.39 263.522 179.497 263.522 173.15C263.522 164.537 265.165 156.887 268.452 150.2C271.738 143.4 276.272 138.13 282.052 134.39C287.832 130.537 294.235 128.61 301.262 128.61C309.875 128.61 316.788 131.613 322.002 137.62C327.328 143.513 330.445 150.823 331.352 159.55C336.678 159.21 343.025 158.077 350.392 156.15C351.298 155.923 352.092 155.81 352.772 155.81ZM297.012 190.83C300.638 190.83 303.755 189.357 306.362 186.41C309.082 183.463 310.895 179.213 311.802 173.66C308.288 171.28 305.568 168.163 303.642 164.31C301.828 160.457 300.922 156.377 300.922 152.07C300.922 150.257 301.092 148.443 301.432 146.63H300.582C296.048 146.63 292.252 148.84 289.192 153.26C286.245 157.567 284.772 163.687 284.772 171.62C284.772 177.853 285.962 182.613 288.342 185.9C290.835 189.187 293.725 190.83 297.012 190.83ZM410.601 170.09C412.074 170.09 413.208 170.77 414.001 172.13C414.908 173.49 415.361 175.36 415.361 177.74C415.361 182.273 414.284 185.787 412.131 188.28C407.258 194.287 401.931 199.217 396.151 203.07C390.484 206.923 384.024 208.85 376.771 208.85C366.798 208.85 359.374 204.317 354.501 195.25C349.741 186.183 347.361 174.453 347.361 160.06C347.361 146.233 349.118 130.48 352.631 112.8C356.258 95.12 361.528 79.9333 368.441 67.24C375.468 54.5467 383.798 48.2 393.431 48.2C398.871 48.2 403.121 50.75 406.181 55.85C409.354 60.8367 410.941 68.0333 410.941 77.44C410.941 90.9267 407.201 106.567 399.721 124.36C392.241 142.153 382.098 159.777 369.291 177.23C370.084 181.877 371.388 185.22 373.201 187.26C375.014 189.187 377.394 190.15 380.341 190.15C384.988 190.15 389.068 188.847 392.581 186.24C396.094 183.52 400.571 178.93 406.011 172.47C407.371 170.883 408.901 170.09 410.601 170.09ZM389.691 65.03C387.084 65.03 384.138 69.7333 380.851 79.14C377.564 88.5467 374.674 100.22 372.181 114.16C369.688 128.1 368.328 141.473 368.101 154.28C376.148 141.02 382.551 127.76 387.311 114.5C392.071 101.127 394.451 88.9433 394.451 77.95C394.451 69.3367 392.864 65.03 389.691 65.03ZM424.27 208.85C417.243 208.85 411.633 206.3 407.44 201.2C403.247 196.1 401.15 189.413 401.15 181.14C401.15 172.073 403.247 163.517 407.44 155.47C411.633 147.31 417.187 140.793 424.1 135.92C431.127 130.933 438.55 128.44 446.37 128.44C448.863 128.44 450.507 128.95 451.3 129.97C452.207 130.877 452.943 132.577 453.51 135.07C455.89 134.617 458.383 134.39 460.99 134.39C466.543 134.39 469.32 136.373 469.32 140.34C469.32 142.72 468.47 148.387 466.77 157.34C464.163 170.373 462.86 179.44 462.86 184.54C462.86 186.24 463.257 187.6 464.05 188.62C464.957 189.64 466.09 190.15 467.45 190.15C469.603 190.15 472.21 188.79 475.27 186.07C478.33 183.237 482.467 178.703 487.68 172.47C489.04 170.883 490.57 170.09 492.27 170.09C493.743 170.09 494.877 170.77 495.67 172.13C496.577 173.49 497.03 175.36 497.03 177.74C497.03 182.273 495.953 185.787 493.8 188.28C489.153 194.06 484.223 198.933 479.01 202.9C473.797 206.867 468.753 208.85 463.88 208.85C460.14 208.85 456.683 207.603 453.51 205.11C450.45 202.503 448.127 198.99 446.54 194.57C440.647 204.09 433.223 208.85 424.27 208.85ZM430.39 191.68C432.883 191.68 435.263 190.207 437.53 187.26C439.797 184.313 441.44 180.403 442.46 175.53L448.75 144.25C443.99 144.363 439.57 146.177 435.49 149.69C431.523 153.09 428.35 157.623 425.97 163.29C423.59 168.957 422.4 174.963 422.4 181.31C422.4 184.823 423.08 187.43 424.44 189.13C425.913 190.83 427.897 191.68 430.39 191.68ZM573.654 170.43C575.127 170.43 576.26 171.167 577.054 172.64C577.96 174 578.414 175.757 578.414 177.91C578.414 180.517 578.017 182.557 577.224 184.03C576.43 185.503 575.184 186.807 573.484 187.94C563.737 194.513 556.597 199.387 552.064 202.56L541.184 209.87C536.877 233.33 531.21 251.747 524.184 265.12C517.27 278.607 508.43 285.35 497.664 285.35C491.884 285.35 487.18 283.537 483.554 279.91C479.927 276.397 478.114 271.75 478.114 265.97C478.114 257.923 481.287 249.253 487.634 239.96C493.98 230.78 505.88 219.447 523.334 205.96L524.354 199.33C522.427 202.39 519.877 204.77 516.704 206.47C513.644 208.057 510.584 208.85 507.524 208.85C500.497 208.85 494.887 206.3 490.694 201.2C486.5 196.1 484.404 189.413 484.404 181.14C484.404 172.073 486.5 163.517 490.694 155.47C494.887 147.31 500.44 140.793 507.354 135.92C514.38 130.933 521.804 128.44 529.624 128.44C532.117 128.44 533.76 128.95 534.554 129.97C535.46 130.877 536.197 132.577 536.764 135.07C538.917 134.617 541.41 134.39 544.244 134.39C547.077 134.39 549.06 134.843 550.194 135.75C551.44 136.543 552.064 138.187 552.064 140.68C552.064 142.04 552.007 143.117 551.894 143.91C551.44 147.423 550.024 156.32 547.644 170.6C547.19 173.32 546.68 176.323 546.114 179.61C545.66 182.783 545.15 186.183 544.584 189.81C553.31 183.01 561.697 177.003 569.744 171.79C571.217 170.883 572.52 170.43 573.654 170.43ZM513.644 191.68C516.25 191.68 518.744 190.093 521.124 186.92C523.504 183.747 525.204 179.213 526.224 173.32L531.664 144.25C527.017 144.363 522.71 146.177 518.744 149.69C514.777 153.09 511.604 157.623 509.224 163.29C506.844 168.957 505.654 174.963 505.654 181.31C505.654 184.823 506.334 187.43 507.694 189.13C509.167 190.83 511.15 191.68 513.644 191.68ZM499.534 268.86C502.367 268.86 505.54 265.46 509.054 258.66C512.68 251.86 516.137 241.037 519.424 226.19C510.697 233.67 504.407 240.413 500.554 246.42C496.7 252.427 494.774 257.697 494.774 262.23C494.774 264.157 495.114 265.743 495.794 266.99C496.587 268.237 497.834 268.86 499.534 268.86ZM600.091 208.85C593.405 208.85 587.681 207.207 582.921 203.92C578.275 200.52 574.761 196.1 572.381 190.66C570.001 185.22 568.811 179.383 568.811 173.15C568.811 164.537 570.398 156.887 573.571 150.2C576.858 143.4 581.278 138.13 586.831 134.39C592.385 130.537 598.618 128.61 605.531 128.61C612.218 128.61 617.941 130.31 622.701 133.71C627.461 136.997 631.031 141.36 633.411 146.8C635.791 152.24 636.981 158.077 636.981 164.31C636.981 172.923 635.338 180.63 632.051 187.43C628.765 194.117 624.288 199.387 618.621 203.24C613.068 206.98 606.891 208.85 600.091 208.85ZM601.961 190.49C605.815 190.49 609.045 188.393 611.651 184.2C614.371 180.007 615.731 173.887 615.731 165.84C615.731 159.607 614.598 154.903 612.331 151.73C610.065 148.557 607.345 146.97 604.171 146.97C600.091 146.97 596.691 149.067 593.971 153.26C591.365 157.34 590.061 163.46 590.061 171.62C590.061 178.08 591.195 182.84 593.461 185.9C595.728 188.96 598.561 190.49 601.961 190.49Z" fill="#AEACA5"/>
</g>
<defs>
<filter id="filter0_in_18_7" x="44.83" y="48.2" width="592.151" height="248.15" filterUnits="userSpaceOnUse" color-interpolation-filters="sRGB">
<feFlood flood-opacity="0" result="BackgroundImageFix"/>
<feBlend mode="normal" in="SourceGraphic" in2="BackgroundImageFix" result="shape"/>
<feColorMatrix in="SourceAlpha" type="matrix" values="0 0 0 0 0 0 0 0 0 0 0 0 0 0 0 0 0 0 127 0" result="hardAlpha"/>
<feOffset dy="11"/>
<feGaussianBlur stdDeviation="22"/>
<feComposite in2="hardAlpha" operator="arithmetic" k2="-1" k3="1"/>
<feColorMatrix type="matrix" values="0 0 0 0 0 0 0 0 0 0 0 0 0 0 0 0 0 0 0.09 0"/>
<feBlend mode="normal" in2="shape" result="effect1_innerShadow_18_7"/>
<feTurbulence type="fractalNoise" baseFrequency="1 1" stitchTiles="stitch" numOctaves="3" result="noise" seed="6138" />
<feColorMatrix in="noise" type="luminanceToAlpha" result="alphaNoise" />
<feComponentTransfer in="alphaNoise" result="coloredNoise1">
<feFuncA type="discrete" tableValues="0 0 0 0 0 0 0 0 0 0 0 0 1 1 1 1 1 1 1 1 1 1 1 1 1 1 1 1 1 1 1 1 1 1 1 1 1 1 0 0 0 0 0 0 0 0 0 0 0 0 0 0 0 0 0 0 0 0 0 0 0 0 0 0 0 0 0 0 0 0 0 0 0 0 0 0 0 0 0 0 0 0 0 0 0 0 0 0 0 0 0 0 0 0 0 0 0 0 0 0 "/>
</feComponentTransfer>
<feComposite operator="in" in2="effect1_innerShadow_18_7" in="coloredNoise1" result="noise1Clipped" />
<feFlood flood-color="rgba(0, 0, 0, 0.1)" result="color1Flood" />
<feComposite operator="in" in2="noise1Clipped" in="color1Flood" result="color1" />
<feMerge result="effect2_noise_18_7">
<feMergeNode in="effect1_innerShadow_18_7" />
<feMergeNode in="color1" />
</feMerge>
</filter>
</defs>
</svg>
